<svg xmlns="http://www.w3.org/2000/svg" width="256" height="256" viewBox="0 0 256 256" fill="none">
  <path d="M128 0C57.308 0 0 57.308 0 128s57.308 128 128 128 128-57.308 128-128S198.692 0 128 0zm0 234.667C66.267 234.667 21.333 189.733 21.333 128S66.267 21.333 128 21.333 234.667 66.267 234.667 128 189.733 234.667 128 234.667z" fill="currentColor"/>
  <path d="M128 64c-35.346 0-64 28.654-64 64s28.654 64 64 64 64-28.654 64-64-28.654-64-64-64zm0 106.667c-23.564 0-42.667-19.103-42.667-42.667S104.436 85.333 128 85.333 170.667 104.436 170.667 128 151.564 170.667 128 170.667z" fill="currentColor"/>
  <circle cx="128" cy="128" r="20" fill="currentColor"/>
</svg>
