<svg viewBox="0 0 308 180" fill="none" xmlns="http://www.w3.org/2000/svg">
<path d="M0 90C0 40.2944 40.2944 0 90 0H218C267.706 0 308 40.2944 308 90C308 139.706 267.706 180 218 180H90C40.2944 180 0 139.706 0 90Z" fill="currentColor"/>
<path d="M90.6641 66.3359C94.9297 66.3359 98.6641 69.6641 98.6641 74.3359V82.3359C98.6641 87.0078 94.9297 90.3359 90.6641 90.3359H82.6641C77.9922 90.3359 74.6641 87.0078 74.6641 82.3359V74.3359C74.6641 69.6641 77.9922 66.3359 82.6641 66.3359H90.6641ZM106.664 98.3359C106.664 93.6641 109.992 90.3359 114.664 90.3359H122.664C127.336 90.3359 130.664 93.6641 130.664 98.3359V106.336C130.664 111.008 127.336 114.336 122.664 114.336H114.664C109.992 114.336 106.664 111.008 106.664 106.336V98.3359Z" fill="white"/>
<path fill-rule="evenodd" clip-rule="evenodd" d="M119.664 66.3359C124.336 66.3359 127.664 69.6641 127.664 74.3359V82.3359C127.664 87.0078 124.336 90.3359 119.664 90.3359C114.992 90.3359 111.664 87.0078 111.664 82.3359V74.3359C111.664 69.6641 114.992 66.3359 119.664 66.3359ZM93.6641 98.3359C93.6641 93.6641 96.9922 90.3359 101.664 90.3359C106.336 90.3359 109.664 93.6641 109.664 98.3359V106.336C109.664 111.008 106.336 114.336 101.664 114.336C96.9922 114.336 93.6641 111.008 93.6641 106.336V98.3359Z" fill="white"/>
<path d="M63.3359 66.3359C68.0078 66.3359 71.3359 69.6641 71.3359 74.3359V106.336C71.3359 111.008 68.0078 114.336 63.3359 114.336C58.6641 114.336 55.3359 111.008 55.3359 106.336V74.3359C55.3359 69.6641 58.6641 66.3359 63.3359 66.3359Z" fill="white"/>
<path d="M138.664 98.3359C138.664 93.6641 141.992 90.3359 146.664 90.3359H154.664C159.336 90.3359 162.664 93.6641 162.664 98.3359V106.336C162.664 111.008 159.336 114.336 154.664 114.336H146.664C141.992 114.336 138.664 111.008 138.664 106.336V98.3359Z" fill="white"/>
<path fill-rule="evenodd" clip-rule="evenodd" d="M225.5 66C238.479 66 249 76.5213 249 89.5C249 102.479 238.479 113 225.5 113C212.521 113 202 102.479 202 89.5C202 76.5213 212.521 66 225.5 66ZM225.5 78C232.404 78 238 83.5964 238 90.5C238 97.4036 232.404 103 225.5 103C218.596 103 213 97.4036 213 90.5C213 83.5964 218.596 78 225.5 78Z" fill="white"/>
<path fill-rule="evenodd" clip-rule="evenodd" d="M269.5 66C282.479 66 293 76.5213 293 89.5C293 102.479 282.479 113 269.5 113C256.521 113 246 102.479 246 89.5C246 76.5213 256.521 66 269.5 66ZM269.5 78C276.404 78 282 83.5964 282 90.5C282 97.4036 276.404 103 269.5 103C262.596 103 257 97.4036 257 90.5C257 83.5964 262.596 78 269.5 78Z" fill="white"/>
<path d="M213 89.5C213 76.5213 223.521 66 236.5 66H258.5C271.479 66 282 76.5213 282 89.5C282 102.479 271.479 113 258.5 113H236.5C223.521 113 213 102.479 213 89.5Z" fill="currentColor"/>
<path fill-rule="evenodd" clip-rule="evenodd" d="M236.5 78C229.596 78 224 83.5964 224 90.5C224 97.4036 229.596 103 236.5 103H258.5C265.404 103 271 97.4036 271 90.5C271 83.5964 265.404 78 258.5 78H236.5Z" fill="white"/>
</svg>
